<svg width="138" height="36" viewBox="0 0 138 36" fill="none" xmlns="http://www.w3.org/2000/svg">
<path d="M106.925 20.0072C104.16 19.6229 101.546 18.5139 99.3484 16.7929C99.3624 16.7215 99.3667 16.6486 99.3611 16.576C99.3247 16.0294 99.3611 15.4827 99.3611 14.9361C99.3393 14.2072 98.9385 13.8191 98.2044 13.7936C97.7927 13.7772 97.3791 13.7754 96.9674 13.7681H96.7671H94.3843C93.6556 13.7681 92.9361 13.7772 92.2111 13.779C92.0289 13.779 91.8249 13.7462 91.905 14.045C91.9961 14.1835 92.0872 14.3184 92.1746 14.4568C92.7877 15.4687 93.684 16.2784 94.7525 16.7859C95.821 17.2934 97.0148 17.4764 98.1862 17.3122C100.003 19.0684 102.301 20.244 104.788 20.6892C107.275 21.1345 109.838 20.8292 112.151 19.8122C110.433 20.1743 108.665 20.2403 106.925 20.0072Z" fill="white"/>
<path d="M96.4575 10.6902C96.9148 10.8815 97.2955 10.7266 97.6271 10.4005C98.0515 9.98138 98.4669 9.55498 98.9022 9.13953C99.8623 8.20293 101.015 8.21386 101.968 9.16139C102.4 9.5896 102.83 10.0196 103.305 10.4934C103.32 10.4336 103.33 10.3726 103.334 10.3112C102.83 6.77798 99.3267 4.56586 96.1023 5.29474C95.8582 5.35122 95.8291 5.47695 95.8272 5.68104C95.8272 7.00576 95.8163 8.33048 95.8272 9.6552C95.8094 9.87223 95.8608 10.0893 95.974 10.2753C96.0873 10.4613 96.2566 10.6065 96.4575 10.6902Z" fill="white"/>
<path d="M97.9656 12.7895C98.2297 12.7637 98.4962 12.8005 98.7434 12.897C99.1867 12.9783 99.5881 13.2109 99.8791 13.5552C100.17 13.8994 100.333 14.334 100.339 14.7848C100.356 15.0927 100.354 15.4025 100.35 15.7177C100.35 15.9837 100.339 16.2534 100.339 16.534C100.418 16.5044 100.495 16.4704 100.571 16.432C102.039 15.5209 102.886 14.1543 103.319 12.5089C103.403 12.1098 103.238 11.8347 102.955 11.5631C102.385 11.0347 101.862 10.4607 101.303 9.91407C100.694 9.31275 100.15 9.31457 99.5413 9.91407C99.0805 10.3678 98.6451 10.847 98.1605 11.2734C97.8856 11.5115 97.5511 11.6702 97.1928 11.7326C96.8346 11.795 96.4662 11.7587 96.127 11.6276C95.7878 11.4966 95.4906 11.2756 95.2674 10.9885C95.0441 10.7014 94.9032 10.359 94.8596 9.99789C94.7485 8.77521 94.8469 7.54889 94.8196 6.32256C94.8196 6.15128 94.8888 5.95813 94.7485 5.80688C92.3148 6.84188 90.8847 9.63346 91.3693 12.3667C91.4276 12.7002 91.5405 12.7913 91.8684 12.7913C93.8941 12.7676 95.9308 12.7822 97.9656 12.7895Z" fill="white"/>
<path d="M46.5982 5.21655L46.7367 8.14662H46.3869C46.3551 7.76537 46.2615 7.39182 46.11 7.04055C45.9422 6.7074 45.6773 6.43295 45.3504 6.25337C44.9614 6.06787 44.5331 5.98029 44.1025 5.99826H42.3428V15.5465C42.3428 16.313 42.4254 16.7922 42.5905 16.9842C42.8237 17.2405 43.1832 17.3693 43.669 17.3705H44.1025V17.7112H38.8051V17.3705H39.2459C39.7742 17.3705 40.1568 17.2119 40.3699 16.8912C40.5047 16.6963 40.5739 16.2462 40.5739 15.5465V5.99826H39.0711C38.6522 5.97909 38.2328 6.0227 37.8269 6.12764C37.4893 6.25928 37.2023 6.49472 37.0071 6.80003C36.7572 7.20593 36.6178 7.67016 36.6027 8.14662H36.2529L36.4005 5.21655H46.5982Z" fill="white"/>
<path d="M53.7172 5.8981V10.838H56.4624C57.1753 10.838 57.6514 10.7305 57.8906 10.5155C58.2094 10.2331 58.388 9.73379 58.4244 9.02131H58.765V13.3708H58.4244C58.388 12.9717 58.3017 12.5787 58.1675 12.201C58.0462 11.9765 57.8541 11.7984 57.621 11.6944C57.2515 11.552 56.856 11.4899 56.4606 11.5122H53.7172V15.6303C53.6968 15.9686 53.7213 16.308 53.79 16.6398C53.841 16.762 53.9323 16.863 54.0487 16.9259C54.2707 17.0144 54.5101 17.0506 54.7482 17.0316H56.8669C57.3843 17.0521 57.9021 17.0025 58.4062 16.884C58.7552 16.7671 59.0712 16.5684 59.3279 16.3046C59.8003 15.7905 60.1944 15.2097 60.4975 14.5808H60.8618L59.7852 17.7131H50.1631V17.3723H50.6039C50.8955 17.372 51.1823 17.2987 51.4383 17.1592C51.6251 17.0703 51.7691 16.9111 51.839 16.7164C51.9297 16.3211 51.9652 15.9151 51.9447 15.5101V7.39046C51.9447 6.59721 51.8645 6.11129 51.7042 5.93272C51.4832 5.68976 51.1146 5.56829 50.5985 5.56829H50.1631V5.22754H59.7906L59.9273 7.9608H59.5629C59.4342 7.30361 59.2915 6.85171 59.1348 6.6051C58.9668 6.35023 58.7236 6.15405 58.439 6.04387C58.0161 5.92929 57.5777 5.88255 57.1401 5.90538L53.7172 5.8981Z" fill="white"/>
<path d="M74.5863 4.93038L74.8705 9.17788H74.5863C74.2037 7.906 73.6572 6.99065 72.9468 6.43185C72.2224 5.8664 71.3241 5.57013 70.4055 5.59366C69.6112 5.58317 68.8307 5.80207 68.1576 6.22412C67.4872 6.64565 66.9601 7.31683 66.5764 8.23764C66.1926 9.15844 66.0044 10.3046 66.0117 11.6761C65.9881 12.6831 66.1742 13.684 66.5582 14.6153C66.8896 15.4084 67.4635 16.0762 68.1977 16.5231C68.9504 16.9721 69.8135 17.2018 70.6897 17.1863C71.4387 17.2019 72.1789 17.0223 72.8375 16.6652C73.4569 16.319 74.1382 15.6296 74.8814 14.597L75.1674 14.7792C74.5408 15.892 73.8121 16.7059 72.9814 17.221C72.082 17.7547 71.0501 18.0232 70.0048 17.9954C67.9402 17.9954 66.3371 17.2276 65.1955 15.6922C64.3384 14.5236 63.8902 13.1051 63.9204 11.656C63.9081 10.4579 64.1962 9.27569 64.7583 8.21758C65.2846 7.20782 66.0845 6.36668 67.0664 5.79044C68.0393 5.21792 69.1493 4.92005 70.278 4.92856C71.2034 4.93799 72.1134 5.16588 72.934 5.59366C73.1007 5.69719 73.2866 5.76598 73.4805 5.79591C73.561 5.7958 73.6406 5.77961 73.7148 5.74832C73.7889 5.71704 73.856 5.67127 73.9123 5.6137C74.0869 5.41882 74.2053 5.1801 74.2547 4.9231L74.5863 4.93038Z" fill="white"/>
<path d="M80.6487 11.0129H86.4526V7.43596C86.4526 6.7982 86.4131 6.37789 86.3341 6.17502C86.2544 6.00184 86.1174 5.86152 85.9461 5.77779C85.6907 5.63272 85.4019 5.55673 85.1081 5.5573H84.6655V5.21655H90.0103V5.5573H89.5676C89.2751 5.55683 88.987 5.62949 88.7296 5.76867C88.6362 5.81224 88.5526 5.87425 88.4837 5.95096C88.4148 6.02768 88.3622 6.11752 88.3289 6.2151C88.2364 6.61507 88.2002 7.02599 88.2214 7.43596V15.5009C88.2214 16.1326 88.2615 16.5499 88.3416 16.7528C88.4191 16.9238 88.5519 17.0638 88.7187 17.15C88.9784 17.2943 89.2705 17.3702 89.5676 17.3705H90.0103V17.7112H84.6655V17.3705H85.1081C85.6182 17.3705 85.9898 17.2211 86.223 16.9186C86.376 16.7236 86.4526 16.2498 86.4526 15.5009V11.6944H80.6487V15.5009C80.6487 16.1326 80.6888 16.5499 80.7689 16.7528C80.8473 16.9262 80.9839 17.0668 81.1551 17.15C81.4112 17.2951 81.7006 17.3711 81.9949 17.3705H82.4449V17.7112H77.0928V17.3705H77.5354C78.051 17.3705 78.4244 17.2211 78.6594 16.9186C78.807 16.7236 78.8798 16.2498 78.8798 15.5009V7.43596C78.8798 6.7982 78.8398 6.37789 78.7596 6.17502C78.6828 6.00353 78.5498 5.8634 78.3825 5.77779C78.1236 5.63328 77.832 5.55738 77.5354 5.5573H77.0928V5.21655H82.4449V5.5573H81.9949C81.7018 5.55699 81.4132 5.62963 81.1551 5.76867C80.9707 5.86095 80.8291 6.02089 80.7598 6.2151C80.6857 6.41554 80.6487 6.8225 80.6487 7.43596V11.0129Z" fill="white"/>
<path d="M113.829 5.5574V5.21665H118.25V5.5574H117.78C117.555 5.55118 117.332 5.60473 117.134 5.71259C116.937 5.82045 116.771 5.97878 116.654 6.17147C116.524 6.36098 116.46 6.80317 116.461 7.49802V12.5655C116.461 13.8192 116.34 14.791 116.097 15.481C115.815 16.2151 115.304 16.8387 114.639 17.2594C113.911 17.7538 112.92 18.001 111.668 18.001C110.303 18.001 109.271 17.7648 108.571 17.2922C107.878 16.8351 107.351 16.1659 107.068 15.3844C106.872 14.8377 106.773 13.8119 106.773 12.3067V7.42696C106.773 6.65982 106.668 6.15142 106.456 5.91636C106.245 5.6813 105.91 5.55193 105.429 5.55193H104.959V5.21118H110.358V5.55193H109.879C109.364 5.55193 108.994 5.71411 108.774 6.04028C108.619 6.26137 108.542 6.72177 108.542 7.42148V12.868C108.548 13.4268 108.593 13.9845 108.677 14.5371C108.729 15.0526 108.894 15.5503 109.16 15.9948C109.417 16.3648 109.764 16.6628 110.169 16.8604C110.673 17.1021 111.228 17.219 111.787 17.2011C112.549 17.2136 113.302 17.0297 113.973 16.6672C114.556 16.3747 115.023 15.892 115.295 15.2988C115.538 14.7436 115.66 13.8021 115.66 12.4744V7.42696C115.66 6.64706 115.572 6.15143 115.401 5.96921C115.158 5.69953 114.802 5.56468 114.332 5.56468L113.829 5.5574Z" fill="white"/>
<path d="M130.681 14.2564L130.986 14.3202L129.916 17.7113H120.243V17.3705H120.713C121.241 17.3705 121.619 17.1986 121.846 16.8548C121.975 16.658 122.039 16.2037 122.039 15.4919V7.42689C122.039 6.647 121.953 6.16109 121.781 5.96915C121.643 5.82802 121.476 5.71869 121.292 5.64881C121.107 5.57894 120.91 5.5502 120.713 5.56462H120.243V5.22388H125.899V5.56462C125.236 5.55733 124.771 5.61807 124.504 5.74684C124.273 5.8441 124.08 6.01599 123.958 6.23518C123.859 6.43198 123.81 6.90211 123.81 7.64556V15.4973C123.81 16.0057 123.859 16.3574 123.958 16.5469C124.034 16.6789 124.155 16.7801 124.298 16.833C124.451 16.8949 124.93 16.9241 125.736 16.9241H126.646C127.605 16.9241 128.277 16.8536 128.663 16.7127C129.074 16.5553 129.438 16.2972 129.723 15.962C130.131 15.4478 130.454 14.8721 130.681 14.2564Z" fill="white"/>
<path d="M137.263 1H1.30029V35H137.263V1Z" stroke="white" stroke-miterlimit="10"/>
<path d="M24.4191 22.7205V23.1778C24.6122 23.023 24.798 22.8608 24.9783 22.6931V22.1465C24.7998 22.3433 24.6134 22.5346 24.4191 22.7205Z" fill="white"/>
<path d="M25.5706 22.09C25.7527 21.8895 25.9349 21.6836 26.0934 21.4686V20.6104C25.9312 20.8837 25.7582 21.157 25.5706 21.403V22.09Z" fill="white"/>
<path d="M26.7637 19.2528H27.4067C27.5087 19.0159 27.6016 18.7736 27.6873 18.5239H27.0278C26.9458 18.7736 26.8584 19.0159 26.7637 19.2528Z" fill="white"/>
<path d="M26.5249 19.803V20.8744C26.867 20.3615 27.1621 19.8187 27.4066 19.2527H26.7635C26.6889 19.4385 26.6105 19.6226 26.5249 19.803Z" fill="white"/>
<path d="M28.1209 16.7927H27.3922C27.3667 17.0065 27.3339 17.2179 27.2938 17.4268H27.9952C28.0437 17.2118 28.0856 17.0005 28.1209 16.7927Z" fill="white"/>
<path d="M28.243 15.1893C28.243 15.0763 28.243 14.9652 28.243 14.854H27.4451C27.4633 15.1 27.4724 15.3478 27.4724 15.5993C27.4724 15.7815 27.4724 15.9637 27.4578 16.1459H28.2029C28.2266 15.8289 28.243 15.51 28.243 15.1893Z" fill="white"/>
<path d="M28.1208 13.5693H27.2628C27.2974 13.7352 27.3284 13.9028 27.3539 14.0723H28.1882C28.1645 13.9028 28.1409 13.7352 28.1208 13.5693Z" fill="white"/>
<path d="M26.8457 10.0271H25.7327C25.8456 10.1911 25.9549 10.3587 26.0569 10.53H27.1208C27.0406 10.3624 26.9477 10.1929 26.8457 10.0271Z" fill="white"/>
<path d="M27.4704 11.2734H26.4703C26.6027 11.5468 26.7242 11.8268 26.8347 12.1135H27.7765C27.6854 11.8292 27.5834 11.5504 27.4704 11.2734Z" fill="white"/>
<path d="M24.5303 7.28833L23.849 7.96982C24.1492 8.21759 24.4356 8.4816 24.707 8.76065L25.3847 8.0828C25.1155 7.80167 24.8302 7.53641 24.5303 7.28833Z" fill="white"/>
<path d="M25.3884 8.08276L24.7107 8.76062C25.089 9.15381 25.4345 9.57735 25.7436 10.027H26.8457C26.4374 9.32429 25.9483 8.67176 25.3884 8.08276Z" fill="white"/>
<path d="M28.0025 12.9717H27.1117C27.1663 13.1685 27.2155 13.3671 27.2574 13.5693H28.1209C28.0845 13.3671 28.0462 13.1685 28.0025 12.9717Z" fill="white"/>
<path d="M11.4255 20.7833C11.4255 20.7833 20.246 15.5227 27.5819 7.97339C27.5819 7.97339 15.2856 16.3299 8.75488 17.8131L11.4255 20.7833Z" fill="white"/>
<path d="M17.9831 12.2046C19.0284 12.2046 19.8758 11.1294 19.8758 9.80301C19.8758 8.47662 19.0284 7.40137 17.9831 7.40137C16.9377 7.40137 16.0903 8.47662 16.0903 9.80301C16.0903 11.1294 16.9377 12.2046 17.9831 12.2046Z" fill="white"/>
<path d="M5.53223 30.2094C5.53223 30.2094 11.766 27.1882 17.2984 20.1255C17.2984 20.1255 14.2453 27.0607 9.1264 31.0695L5.53223 30.2094Z" fill="white"/>
<path d="M16.5695 28.2907C19.1453 23.553 19.3348 16.9768 19.3348 16.9768C18.1325 21.2061 15.6186 25.0873 14.2159 27.0371L14.2031 27.0553C13.6005 27.8908 13.2761 28.8949 13.2759 29.9252V30.5356H20.9889C20.9889 30.5356 20.9889 29.8596 16.5695 28.2907Z" fill="white"/>
<path d="M17.7993 25.4462C17.8613 25.4462 17.9214 25.4462 17.9815 25.4462V25.4353C17.9195 25.4426 17.8613 25.4462 17.7993 25.4462Z" fill="white"/>
<path d="M18.4932 25.4099V25.439H18.6553V25.4026L18.4932 25.4099Z" fill="white"/>
<path d="M18.1455 25.4335V25.4498H18.3058V25.428L18.1455 25.4335Z" fill="white"/>
<path d="M18.8154 25.3754V25.4173L18.9539 25.4064V25.3572L18.8154 25.3754Z" fill="white"/>
<path d="M19.6938 25.2277V25.3042L19.7667 25.2915V25.2095L19.6938 25.2277Z" fill="white"/>
<path d="M19.5679 25.255V25.3298L19.6316 25.3188V25.2405L19.5679 25.255Z" fill="white"/>
<path d="M19.1089 25.3353V25.39H19.1562V25.3335L19.1089 25.3353Z" fill="white"/>
<path d="M19.209 25.3188V25.3771H19.2618V25.3042L19.209 25.3188Z" fill="white"/>
<path d="M19.8506 25.193V25.2805L19.9143 25.2696V25.1785L19.8506 25.193Z" fill="white"/>
<path d="M20.231 25.2041L20.2984 25.1877V25.0784L20.231 25.0966V25.2041Z" fill="white"/>
<path d="M20.375 25.0563V25.1693L20.446 25.1529V25.0344L20.375 25.0563Z" fill="white"/>
<path d="M20.7358 25.0765L20.8251 25.051V24.9143L20.7358 24.9435V25.0765Z" fill="white"/>
<path d="M20.5444 25.1221L20.6428 25.0965V24.969L20.5444 25V25.1221Z" fill="white"/>
<path d="M22.2588 24.2856V24.517C22.3954 24.4551 22.5339 24.3895 22.6687 24.3184V24.0542C22.5339 24.1344 22.3972 24.2109 22.2588 24.2856Z" fill="white"/>
<path d="M23.2461 23.6807V23.9977C23.4283 23.8829 23.6232 23.7627 23.8053 23.6333V23.2561C23.6232 23.4073 23.4374 23.5477 23.2461 23.6807Z" fill="white"/>
<path d="M21.9019 24.4695V24.6736L22.0294 24.6208V24.4058L21.9019 24.4695Z" fill="white"/>
<path d="M21.2349 24.9233L21.3387 24.8887V24.7192L21.2349 24.7612V24.9233Z" fill="white"/>
<path d="M21.437 24.8541L21.5554 24.8104V24.6282L21.437 24.6792V24.8541Z" fill="white"/>
<path d="M16.3145 5.06161V5.8324C16.7463 5.77522 17.1814 5.74661 17.617 5.74675H17.6825V4.93042C17.2241 4.94345 16.767 4.98727 16.3145 5.06161Z" fill="white"/>
<path d="M13.8535 5.79044V6.49199C14.2535 6.32582 14.6643 6.18701 15.0831 6.07653V5.34766C14.6643 5.4691 14.2536 5.617 13.8535 5.79044Z" fill="white"/>
<path d="M18.7446 4.9541V5.80688C19.064 5.84252 19.3814 5.89421 19.6955 5.96176V5.07801C19.3846 5.01848 19.0677 4.97718 18.7446 4.9541Z" fill="white"/>
<path d="M20.7847 5.31494V6.26795C21.2065 6.41057 21.618 6.58225 22.0161 6.78179V5.74862C21.6154 5.5778 21.204 5.43294 20.7847 5.31494Z" fill="white"/>
<path d="M23.0786 6.28076V7.39958C23.3446 7.57815 23.6014 7.76827 23.8492 7.96992L24.5305 7.28843C24.0771 6.91042 23.5913 6.57322 23.0786 6.28076Z" fill="white"/>
<path d="M7.71826 15.1891C7.71939 15.6322 7.7492 16.0747 7.80752 16.5138C7.7802 16.2132 7.7638 15.9071 7.7638 15.6028C7.76303 14.4557 7.96278 13.3173 8.35403 12.239V11.6377C7.93391 12.7746 7.71866 13.977 7.71826 15.1891Z" fill="white"/>
<path d="M9.96045 8.79161V9.40204C10.2365 9.0603 10.5353 8.73764 10.8549 8.43628V7.81128C10.5357 8.11816 10.2369 8.44564 9.96045 8.79161Z" fill="white"/>
<path d="M12.5691 6.47021C12.285 6.64757 12.0111 6.83708 11.7476 7.03873V7.6856C12.0117 7.49063 12.285 7.30659 12.5691 7.13895V6.47021Z" fill="white"/>
<path d="M9.17556 9.91968C9.02436 10.173 8.88227 10.4335 8.75293 10.7014V11.2991C8.88227 11.0312 9.02254 10.7725 9.17556 10.5192V9.91968Z" fill="white"/>
<path d="M46.5018 27.9118V29.1874H47.7915V29.4698H46.5018V30.7581H47.9373V31.0405H46.1611V27.6294H47.9373V27.9118H46.5018Z" fill="white"/>
<path d="M51.8007 27.8387C52.0625 27.9663 52.2782 28.172 52.4183 28.4273C52.566 28.7078 52.6394 29.0215 52.6314 29.3384C52.6403 29.6554 52.5668 29.9693 52.4183 30.2495C52.2774 30.5028 52.0617 30.7065 51.8007 30.8326C51.4979 30.9747 51.166 31.044 50.8316 31.0348H49.8242V27.6328H50.8316C51.1664 27.6239 51.4985 27.6945 51.8007 27.8387ZM51.9155 30.3898C52.043 30.2501 52.141 30.0861 52.2036 29.9076C52.2662 29.7292 52.2921 29.5399 52.2798 29.3511C52.2922 29.1607 52.2663 28.9698 52.2037 28.7895C52.1411 28.6093 52.0431 28.4434 51.9155 28.3016C51.7698 28.1686 51.5985 28.0666 51.4122 28.0018C51.2259 27.9369 51.0284 27.9106 50.8316 27.9244H50.1649V30.7524H50.8316C51.0279 30.766 51.225 30.7401 51.4111 30.6762C51.5973 30.6124 51.7688 30.5119 51.9155 30.3807V30.3898Z" fill="white"/>
<path d="M57.153 28.6261C57.0607 28.4091 56.9052 28.2249 56.7067 28.0976C56.4959 27.9668 56.2516 27.9003 56.0036 27.9063C55.7642 27.9049 55.5289 27.9678 55.3223 28.0885C55.1204 28.2059 54.9557 28.3776 54.8468 28.5842C54.7306 28.818 54.6701 29.0756 54.6701 29.3367C54.6701 29.5979 54.7306 29.8554 54.8468 30.0893C54.9546 30.298 55.1195 30.4718 55.3223 30.5904C55.5236 30.7025 55.7495 30.7632 55.9799 30.767C56.2103 30.7709 56.4381 30.7177 56.643 30.6123C56.8326 30.5112 56.9908 30.3599 57.1002 30.1749C57.2199 29.9735 57.2881 29.7457 57.2988 29.5117H55.8669V29.2329H57.6576V29.4825C57.6453 29.7681 57.562 30.0462 57.4154 30.2915C57.2731 30.5302 57.0709 30.7274 56.8288 30.8637C56.5769 31.005 56.2923 31.0773 56.0036 31.0733C55.7035 31.0765 55.408 30.9998 55.1474 30.851C54.893 30.7043 54.6838 30.4906 54.5426 30.2332C54.3966 29.9566 54.3203 29.6486 54.3203 29.3358C54.3203 29.023 54.3966 28.715 54.5426 28.4384C54.6838 28.181 54.893 27.9673 55.1474 27.8207C55.4262 27.6666 55.7413 27.5901 56.0597 27.5991C56.3781 27.6081 56.6884 27.7022 56.9581 27.8717C57.2317 28.0547 57.4397 28.3203 57.552 28.6297L57.153 28.6261Z" fill="white"/>
<path d="M59.8382 27.9118V29.1874H61.1261V29.4698H59.8382V30.7581H61.2737V31.0405H59.4976V27.6294H61.2737V27.9118H59.8382Z" fill="white"/>
<path d="M66.3817 30.8474C66.1264 30.7014 65.9164 30.4876 65.7751 30.2296C65.6303 29.9527 65.5547 29.6448 65.5547 29.3322C65.5547 29.0197 65.6303 28.7118 65.7751 28.4348C65.9164 28.1769 66.1264 27.9631 66.3817 27.8171C66.6442 27.6712 66.9394 27.5947 67.2397 27.5947C67.5399 27.5947 67.8352 27.6712 68.0977 27.8171C68.3529 27.9626 68.5623 28.1766 68.7025 28.4348C68.8461 28.7121 68.921 29.0199 68.921 29.3322C68.921 29.6445 68.8461 29.9523 68.7025 30.2296C68.5623 30.4879 68.3529 30.7018 68.0977 30.8474C67.8352 30.9932 67.5399 31.0697 67.2397 31.0697C66.9394 31.0697 66.6442 30.9932 66.3817 30.8474ZM67.9192 30.5977C68.1225 30.4782 68.2875 30.3031 68.3946 30.093C68.5109 29.8566 68.5713 29.5966 68.5713 29.3331C68.5713 29.0697 68.5109 28.8097 68.3946 28.5733C68.2868 28.3645 68.122 28.1907 67.9192 28.0722C67.7104 27.9575 67.4761 27.8974 67.2379 27.8974C66.9997 27.8974 66.7653 27.9575 66.5566 28.0722C66.3528 28.1901 66.1871 28.364 66.0793 28.5733C65.9642 28.8101 65.9045 29.0699 65.9045 29.3331C65.9045 29.5964 65.9642 29.8562 66.0793 30.093C66.1866 30.3036 66.3523 30.4788 66.5566 30.5977C66.7653 30.7124 66.9997 30.7725 67.2379 30.7725C67.4761 30.7725 67.7104 30.7124 67.9192 30.5977Z" fill="white"/>
<path d="M72.5992 27.6331V27.9155H71.0999V29.191H72.366V29.4735H71.0999V31.0405H70.7593V27.6331H72.5992Z" fill="white"/>
<path d="M78.9127 27.6331V27.9155H77.9691V31.0351H77.6284V27.9155H76.6812V27.6331H78.9127Z" fill="white"/>
<path d="M81.0098 27.9118V29.1874H82.2995V29.4698H81.0098V30.7581H82.4453V31.0405H80.6782V27.6294H82.4544V27.9118H81.0098Z" fill="white"/>
<path d="M84.3962 28.4345C84.5354 28.1774 84.7428 27.9636 84.9956 27.8168C85.252 27.6676 85.5442 27.5907 85.8408 27.5945C86.186 27.5843 86.5262 27.6783 86.8173 27.8642C87.0908 28.048 87.2977 28.3151 87.4075 28.6258H87.0085C86.9201 28.4023 86.7648 28.2114 86.564 28.0792C86.3528 27.955 86.113 27.8879 85.8681 27.8844C85.6231 27.8809 85.3815 27.9411 85.1668 28.0592C84.9656 28.1783 84.8031 28.3529 84.6986 28.5621C84.5805 28.7983 84.5217 29.0597 84.5274 29.3237C84.5211 29.5873 84.5799 29.8483 84.6986 30.0836C84.8036 30.2919 84.9661 30.4658 85.1668 30.5847C85.3815 30.7022 85.6228 30.7625 85.8676 30.7596C86.1123 30.7567 86.3522 30.6909 86.564 30.5683C86.7635 30.4402 86.9186 30.2538 87.0085 30.0344H87.4075C87.2969 30.3433 87.0892 30.608 86.8154 30.7888C86.5242 30.9726 86.185 31.0658 85.8408 31.0566C85.5443 31.061 85.2522 30.9848 84.9956 30.8362C84.7433 30.6895 84.536 30.4765 84.3962 30.2203C84.2527 29.9432 84.1777 29.6358 84.1777 29.3237C84.1777 29.0117 84.2527 28.7043 84.3962 28.4272V28.4345Z" fill="white"/>
<path d="M91.8251 27.6331V31.0351H91.4845V29.4443H89.6409V31.0351H89.3003V27.6331H89.6409V29.1619H91.4845V27.6331H91.8251Z" fill="white"/>
<path d="M96.3846 31.0351H96.044L94.1585 28.1742V31.0351H93.8179V27.6331H94.1585L96.0421 30.4902V27.6331H96.3828L96.3846 31.0351Z" fill="white"/>
<path d="M99.0443 30.8472C98.7893 30.6991 98.58 30.4834 98.4395 30.224C98.2936 29.9474 98.2173 29.6394 98.2173 29.3266C98.2173 29.0138 98.2936 28.7058 98.4395 28.4292C98.5808 28.1718 98.79 27.9581 99.0443 27.8114C99.3071 27.6656 99.6027 27.5891 99.9033 27.5891C100.204 27.5891 100.499 27.6656 100.762 27.8114C101.017 27.957 101.226 28.171 101.365 28.4292C101.51 28.7061 101.586 29.014 101.586 29.3266C101.586 29.6391 101.51 29.947 101.365 30.224C101.226 30.4821 101.017 30.6961 100.762 30.8417C100.499 30.9875 100.204 31.0641 99.9033 31.0641C99.6027 31.0641 99.3071 30.9875 99.0443 30.8417V30.8472ZM100.582 30.5976C100.786 30.4787 100.952 30.3034 101.059 30.0928C101.174 29.856 101.234 29.5962 101.234 29.333C101.234 29.0697 101.174 28.8099 101.059 28.5731C100.951 28.3638 100.786 28.1899 100.582 28.072C100.373 27.9573 100.139 27.8972 99.9014 27.8972C99.6635 27.8972 99.4295 27.9573 99.221 28.072C99.0173 28.1899 98.8516 28.3638 98.7438 28.5731C98.6287 28.8099 98.569 29.0697 98.569 29.333C98.569 29.5962 98.6287 29.856 98.7438 30.0928C98.8511 30.3034 99.0168 30.4787 99.221 30.5976C99.4295 30.7122 99.6635 30.7724 99.9014 30.7724C100.139 30.7724 100.373 30.7122 100.582 30.5976Z" fill="white"/>
<path d="M103.764 30.7581H104.985V31.0351H103.423V27.6331H103.764V30.7581Z" fill="white"/>
<path d="M107.36 30.8474C107.105 30.7014 106.895 30.4876 106.754 30.2296C106.609 29.9527 106.533 29.6448 106.533 29.3322C106.533 29.0197 106.609 28.7118 106.754 28.4348C106.895 28.1769 107.105 27.9631 107.36 27.8171C107.623 27.6712 107.918 27.5947 108.218 27.5947C108.518 27.5947 108.814 27.6712 109.076 27.8171C109.331 27.9632 109.54 28.177 109.681 28.4348C109.825 28.7121 109.9 29.0199 109.9 29.3322C109.9 29.6445 109.825 29.9523 109.681 30.2296C109.54 30.4875 109.331 30.7012 109.076 30.8474C108.814 30.9932 108.518 31.0697 108.218 31.0697C107.918 31.0697 107.623 30.9932 107.36 30.8474ZM108.898 30.5977C109.101 30.4782 109.266 30.3031 109.373 30.093C109.488 29.8562 109.548 29.5964 109.548 29.3331C109.548 29.0699 109.488 28.8101 109.373 28.5733C109.265 28.3645 109.1 28.1907 108.898 28.0722C108.689 27.9575 108.455 27.8974 108.216 27.8974C107.978 27.8974 107.744 27.9575 107.535 28.0722C107.331 28.1901 107.166 28.364 107.058 28.5733C106.943 28.8101 106.883 29.0699 106.883 29.3331C106.883 29.5964 106.943 29.8562 107.058 30.093C107.165 30.3036 107.331 30.4788 107.535 30.5977C107.744 30.7124 107.978 30.7725 108.216 30.7725C108.455 30.7725 108.689 30.7124 108.898 30.5977Z" fill="white"/>
<path d="M114.414 28.6261C114.322 28.4093 114.167 28.2251 113.969 28.0977C113.758 27.9669 113.514 27.9004 113.266 27.9064C113.027 27.9048 112.791 27.9677 112.585 28.0886C112.382 28.2069 112.217 28.3799 112.108 28.5879C111.992 28.822 111.933 29.0795 111.933 29.3404C111.933 29.6014 111.992 29.8588 112.108 30.093C112.216 30.3019 112.381 30.4756 112.585 30.5941C112.786 30.7063 113.012 30.7669 113.242 30.7707C113.473 30.7746 113.701 30.7214 113.906 30.616C114.095 30.5144 114.253 30.3632 114.363 30.1786C114.481 29.9767 114.549 29.7491 114.559 29.5154H113.129V29.2366H114.926V29.4862C114.913 29.772 114.829 30.05 114.682 30.2953C114.54 30.5338 114.338 30.7311 114.097 30.8674C113.845 31.0087 113.56 31.081 113.272 31.077C112.971 31.0806 112.676 31.0039 112.415 30.8547C112.16 30.7087 111.95 30.4949 111.809 30.2369C111.664 29.96 111.588 29.6521 111.588 29.3395C111.588 29.027 111.664 28.7191 111.809 28.4421C111.95 28.1842 112.16 27.9704 112.415 27.8244C112.694 27.6703 113.009 27.5938 113.327 27.6028C113.645 27.6117 113.955 27.7059 114.224 27.8754C114.498 28.0579 114.707 28.3236 114.818 28.6334L114.414 28.6261Z" fill="white"/>
<path d="M119.006 27.6331L117.913 29.7122V31.0351H117.572V29.7122L116.479 27.6331H116.866L117.751 29.4006L118.631 27.6331H119.006Z" fill="white"/>
<path d="M41.3867 29.333H31.189" stroke="white" stroke-miterlimit="10"/>
<path d="M133.98 29.333H123.782" stroke="white" stroke-miterlimit="10"/>
</svg>
