<svg width="1072" height="275" viewBox="0 0 1072 275" fill="none" xmlns="http://www.w3.org/2000/svg">
<path d="M830.189 153.504C808.564 150.498 788.118 141.824 770.927 128.362C771.036 127.804 771.07 127.233 771.027 126.666C770.742 122.39 771.027 118.114 771.027 113.838C770.856 108.137 767.721 105.101 761.978 104.902C758.758 104.773 755.524 104.759 752.303 104.702H750.736H732.098C726.399 104.702 720.77 104.773 715.099 104.788C713.674 104.788 712.078 104.531 712.705 106.869C713.418 107.952 714.13 109.007 714.814 110.09C719.61 118.004 726.62 124.338 734.978 128.308C743.335 132.277 752.673 133.709 761.836 132.424C776.046 146.161 794.023 155.357 813.476 158.839C832.929 162.322 852.978 159.934 871.069 151.979C857.629 154.812 843.803 155.327 830.189 153.504Z" fill="#195076"/>
<path d="M760.112 97.0481C762.178 96.8463 764.263 97.1343 766.196 97.889C769.664 98.5252 772.803 100.345 775.08 103.037C777.356 105.73 778.628 109.129 778.679 112.655C778.807 115.064 778.793 117.487 778.764 119.953C778.764 122.034 778.679 124.143 778.679 126.338C779.297 126.106 779.901 125.84 780.488 125.54C791.973 118.413 798.599 107.724 801.99 94.8532C802.646 91.7318 801.349 89.5795 799.14 87.4559C794.68 83.3225 790.591 78.8327 786.216 74.5568C781.457 69.8534 777.197 69.8676 772.438 74.5568C768.833 78.1058 765.427 81.8544 761.637 85.1896C759.486 87.0516 756.87 88.2931 754.068 88.7812C751.266 89.2693 748.384 88.9856 745.731 87.9603C743.077 86.9351 740.753 85.207 739.007 82.9613C737.261 80.7157 736.158 78.0371 735.817 75.2125C734.948 65.6488 735.718 56.0565 735.504 46.4643C735.504 45.1245 736.045 43.6137 734.948 42.4307C715.912 50.5264 704.726 72.3619 708.516 93.7414C708.972 96.3497 709.856 97.0623 712.421 97.0623C728.266 96.8771 744.196 96.9911 760.112 97.0481Z" fill="#195076"/>
<path d="M748.314 80.629C751.89 82.1256 754.868 80.9141 757.462 78.3628C760.782 75.0846 764.031 71.7494 767.436 68.4997C774.945 61.1737 783.965 61.2592 791.417 68.6707C794.794 72.0202 798.157 75.3839 801.876 79.0896C801.992 78.6218 802.068 78.145 802.104 77.6644C798.157 50.0278 770.756 32.7248 745.535 38.426C743.626 38.8678 743.398 39.8512 743.384 41.4476C743.384 51.8095 743.298 62.1714 743.384 72.5333C743.244 74.2309 743.646 75.9291 744.532 77.3837C745.418 78.8384 746.742 79.9745 748.314 80.629Z" fill="#195076"/>
<path d="M358.317 37.813L359.4 60.7318H356.664C356.415 57.7497 355.683 54.8279 354.498 52.0802C353.185 49.4743 351.113 47.3276 348.556 45.9229C345.514 44.4719 342.163 43.7869 338.796 43.9275H325.031V118.613C325.031 124.609 325.677 128.357 326.969 129.859C328.793 131.864 331.605 132.871 335.404 132.88H338.796V135.546H297.359V132.88H300.808C304.94 132.88 307.932 131.64 309.599 129.132C310.654 127.607 311.195 124.086 311.195 118.613V43.9275H299.44C296.163 43.7775 292.883 44.1186 289.708 44.9395C287.067 45.9691 284.822 47.8107 283.296 50.1988C281.341 53.3738 280.25 57.005 280.132 60.7318H277.396L278.551 37.813H358.317Z" fill="#195076"/>
<path d="M414.003 43.1435V81.7833H435.476C441.052 81.7833 444.776 80.9425 446.647 79.2606C449.141 77.0514 450.537 73.1461 450.822 67.5731H453.487V101.595H450.822C450.537 98.4729 449.862 95.3988 448.813 92.4446C447.864 90.6884 446.361 89.2953 444.538 88.4822C441.648 87.368 438.554 86.8821 435.462 87.0569H414.003V119.269C413.844 121.914 414.035 124.569 414.573 127.165C414.971 128.121 415.685 128.911 416.596 129.403C418.332 130.095 420.204 130.378 422.068 130.229H438.639C442.686 130.39 446.737 130.001 450.68 129.075C453.41 128.16 455.882 126.606 457.89 124.542C461.585 120.522 464.667 115.979 467.038 111.059H469.887L461.466 135.56H386.203V132.894H389.651C391.931 132.892 394.175 132.319 396.177 131.227C397.638 130.532 398.765 129.287 399.312 127.763C400.021 124.671 400.299 121.496 400.138 118.328V54.8167C400.138 48.6119 399.511 44.8111 398.257 43.4143C396.528 41.5139 393.645 40.5637 389.608 40.5637H386.203V37.8984H461.509L462.578 59.2779H459.728C458.721 54.1373 457.605 50.6026 456.379 48.6737C455.065 46.6801 453.163 45.1456 450.936 44.2837C447.628 43.3875 444.199 43.0219 440.777 43.2005L414.003 43.1435Z" fill="#195076"/>
<path d="M577.24 35.575L579.463 68.7987H577.24C574.247 58.8502 569.973 51.6904 564.416 47.3195C558.749 42.8966 551.723 40.5792 544.538 40.7632C538.325 40.6811 532.22 42.3933 526.955 45.6946C521.711 48.9918 517.588 54.2417 514.587 61.4442C511.585 68.6467 510.112 77.6119 510.169 88.3396C509.985 96.2165 511.441 104.046 514.444 111.33C517.036 117.534 521.526 122.757 527.268 126.252C533.156 129.765 539.907 131.561 546.761 131.441C552.62 131.562 558.409 130.157 563.561 127.364C568.405 124.656 573.734 119.264 579.548 111.187L581.785 112.612C576.884 121.316 571.184 127.683 564.686 131.711C557.652 135.886 549.58 137.986 541.403 137.769C525.254 137.769 512.715 131.764 503.786 119.753C497.081 110.613 493.576 99.5169 493.811 88.1827C493.715 78.8106 495.969 69.5638 500.366 61.2874C504.483 53.3891 510.739 46.8097 518.42 42.3024C526.03 37.8241 534.712 35.4943 543.541 35.5608C550.779 35.6346 557.897 37.4171 564.316 40.7632C565.62 41.573 567.074 42.1111 568.591 42.3452C569.22 42.3443 569.843 42.2177 570.423 41.973C571.003 41.7282 571.528 41.3702 571.968 40.9199C573.334 39.3956 574.26 37.5284 574.646 35.5181L577.24 35.575Z" fill="#195076"/>
<path d="M624.66 83.1517H670.058V55.1731C670.058 50.1846 669.749 46.8969 669.132 45.3101C668.508 43.9555 667.436 42.8579 666.097 42.2029C664.099 41.0682 661.84 40.4738 659.542 40.4783H656.08V37.813H697.886V40.4783H694.424C692.135 40.4747 689.882 41.0429 687.869 42.1316C687.138 42.4724 686.484 42.9574 685.945 43.5575C685.407 44.1576 684.995 44.8603 684.734 45.6236C684.011 48.7521 683.728 51.9663 683.894 55.1731V118.257C683.894 123.198 684.207 126.462 684.834 128.049C685.44 129.387 686.479 130.481 687.784 131.156C689.815 132.285 692.1 132.878 694.424 132.88H697.886V135.546H656.08V132.88H659.542C663.532 132.88 666.439 131.712 668.263 129.346C669.459 127.82 670.058 124.115 670.058 118.257V88.4823H624.66V118.257C624.66 123.198 624.974 126.462 625.601 128.049C626.214 129.406 627.283 130.505 628.622 131.156C630.625 132.291 632.888 132.885 635.19 132.88H638.71V135.546H596.846V132.88H600.309C604.341 132.88 607.262 131.712 609.1 129.346C610.255 127.82 610.825 124.115 610.825 118.257V55.1731C610.825 50.1846 610.511 46.8969 609.884 45.3101C609.283 43.9687 608.243 42.8726 606.935 42.2029C604.909 41.0726 602.628 40.4789 600.309 40.4783H596.846V37.813H638.71V40.4783H635.19C632.898 40.4759 630.64 41.044 628.622 42.1316C627.179 42.8534 626.072 44.1044 625.53 45.6236C624.95 47.1914 624.66 50.3746 624.66 55.1731V83.1517Z" fill="#195076"/>
<path d="M884.193 40.4781V37.8128H918.775V40.4781H915.099C913.338 40.4295 911.595 40.8483 910.048 41.692C908.502 42.5357 907.206 43.7742 906.293 45.2814C905.277 46.7637 904.773 50.2224 904.783 55.6576V95.2951C904.783 105.101 903.833 112.703 901.933 118.1C899.726 123.842 895.729 128.72 890.533 132.011C884.834 135.878 877.087 137.812 867.293 137.812C856.616 137.812 848.542 135.964 843.07 132.267C837.644 128.692 833.521 123.457 831.314 117.344C829.776 113.069 829.006 105.044 829.006 93.2711V55.1017C829.006 49.1012 828.18 45.1245 826.527 43.2859C824.874 41.4473 822.252 40.4353 818.49 40.4353H814.814V37.77H857.048V40.4353H853.301C849.268 40.4353 846.376 41.7039 844.651 44.2552C843.445 45.9846 842.842 49.5857 842.842 55.0589V97.6611C842.889 102.032 843.241 106.395 843.896 110.717C844.302 114.749 845.591 118.642 847.672 122.119C849.683 125.013 852.4 127.344 855.566 128.889C859.509 130.781 863.849 131.695 868.219 131.555C874.183 131.652 880.071 130.214 885.318 127.378C889.883 125.09 893.532 121.315 895.663 116.675C897.563 112.332 898.513 104.968 898.513 94.5824V55.1017C898.513 49.0014 897.829 45.1246 896.49 43.6993C894.59 41.5899 891.802 40.5351 888.125 40.5351L884.193 40.4781Z" fill="#195076"/>
<path d="M1016.01 108.522L1018.39 109.021L1010.03 135.546H934.364V132.881H938.04C942.172 132.881 945.127 131.536 946.903 128.847C947.91 127.308 948.413 123.754 948.413 118.186V55.102C948.413 49.0017 947.739 45.2009 946.39 43.6996C945.313 42.5957 944.007 41.7405 942.565 41.194C941.123 40.6474 939.578 40.4226 938.04 40.5354H934.364V37.8701H978.607V40.5354C973.42 40.4784 969.782 40.9535 967.692 41.9607C965.881 42.7215 964.377 44.066 963.418 45.7805C962.648 47.3198 962.263 50.9972 962.263 56.8124V118.228C962.263 122.205 962.648 124.956 963.418 126.438C964.019 127.471 964.961 128.262 966.082 128.676C967.279 129.16 971.027 129.389 977.325 129.389H984.449C991.944 129.389 997.202 128.837 1000.22 127.735C1003.44 126.504 1006.29 124.485 1008.52 121.863C1011.7 117.841 1014.23 113.338 1016.01 108.522Z" fill="#195076"/>
<path d="M1067.49 4.83154H4V270.778H1067.49V4.83154Z" stroke="#195277" strokeWidth="8" stroke-miterlimit="10"/>
<path d="M83.1962 159.576C83.1962 159.576 152.19 118.428 209.571 59.3774C209.571 59.3774 113.39 124.742 62.3071 136.344L83.1962 159.576Z" fill="#46A4AD"/>
<path d="M134.493 92.4733C142.669 92.4733 149.298 84.0627 149.298 73.6878C149.298 63.3129 142.669 54.9023 134.493 54.9023C126.316 54.9023 119.688 63.3129 119.688 73.6878C119.688 84.0627 126.316 92.4733 134.493 92.4733Z" fill="#46A4AD"/>
<path d="M37.1006 233.307C37.1006 233.307 85.8609 209.675 129.135 154.431C129.135 154.431 105.254 208.677 65.214 240.034L37.1006 233.307Z" fill="#46A4AD"/>
<path d="M123.436 218.299C143.584 181.241 145.066 129.802 145.066 129.802C135.661 162.883 115.998 193.242 105.026 208.492L104.926 208.635C100.212 215.171 97.675 223.025 97.6733 231.083V235.858H158.004C158.004 235.858 158.004 230.57 123.436 218.299Z" fill="#195076"/>
<path d="M133.054 196.049C133.538 196.049 134.008 196.049 134.479 196.049V195.964C133.994 196.021 133.538 196.049 133.054 196.049Z" fill="#195076"/>
<path d="M138.482 195.764V195.992H139.751V195.707L138.482 195.764Z" fill="#195076"/>
<path d="M135.761 195.95V196.078H137.015V195.907L135.761 195.95Z" fill="#195076"/>
<path d="M141.004 195.494V195.821L142.087 195.736V195.351L141.004 195.494Z" fill="#195076"/>
<path d="M147.873 194.339V194.937L148.443 194.838V194.196L147.873 194.339Z" fill="#195076"/>
<path d="M146.89 194.553V195.137L147.388 195.052V194.439L146.89 194.553Z" fill="#195076"/>
<path d="M143.299 195.18V195.607H143.669V195.166L143.299 195.18Z" fill="#195076"/>
<path d="M144.083 195.052V195.508H144.496V194.938L144.083 195.052Z" fill="#195076"/>
<path d="M149.098 194.068V194.752L149.597 194.667V193.954L149.098 194.068Z" fill="#195076"/>
<path d="M152.076 194.154L152.603 194.026V193.17L152.076 193.313V194.154Z" fill="#195076"/>
<path d="M153.202 192.999V193.883L153.757 193.755V192.828L153.202 192.999Z" fill="#195076"/>
<path d="M156.023 193.156L156.721 192.957V191.888L156.023 192.116V193.156Z" fill="#195076"/>
<path d="M154.527 193.512L155.296 193.313V192.315L154.527 192.557V193.512Z" fill="#195076"/>
<path d="M167.936 186.97V188.78C169.004 188.296 170.087 187.783 171.142 187.227V185.16C170.087 185.787 169.018 186.386 167.936 186.97Z" fill="#195076"/>
<path d="M184.834 174.727V178.305C186.345 177.093 187.798 175.824 189.209 174.513V170.237C187.813 171.777 186.354 173.273 184.834 174.727Z" fill="#195076"/>
<path d="M175.658 182.238V184.718C177.083 183.821 178.608 182.88 180.033 181.868V178.917C178.608 180.1 177.154 181.198 175.658 182.238Z" fill="#195076"/>
<path d="M165.143 188.41V190.006L166.14 189.593V187.911L165.143 188.41Z" fill="#195076"/>
<path d="M159.927 191.959L160.739 191.688V190.362L159.927 190.69V191.959Z" fill="#195076"/>
<path d="M161.509 191.417L162.435 191.075V189.649L161.509 190.049V191.417Z" fill="#195076"/>
<path d="M193.84 169.796C195.265 168.228 196.69 166.617 197.93 164.935V158.222C196.662 160.36 195.308 162.498 193.84 164.422V169.796Z" fill="#195076"/>
<path d="M203.173 147.604H208.203C209.001 145.751 209.728 143.855 210.398 141.902H205.239C204.598 143.855 203.914 145.751 203.173 147.604Z" fill="#195076"/>
<path d="M201.307 151.908V160.289C203.982 156.276 206.291 152.031 208.203 147.604H203.173C202.589 149.057 201.976 150.497 201.307 151.908Z" fill="#195076"/>
<path d="M213.789 128.362H208.089C207.89 130.034 207.633 131.688 207.32 133.322H212.806C213.186 131.64 213.513 129.987 213.789 128.362Z" fill="#195076"/>
<path d="M214.744 115.819C214.744 114.936 214.744 114.066 214.744 113.197H208.502C208.645 115.121 208.716 117.059 208.716 119.026C208.716 120.451 208.716 121.877 208.602 123.302H214.43C214.615 120.822 214.744 118.328 214.744 115.819Z" fill="#195076"/>
<path d="M213.789 103.148H207.078C207.348 104.445 207.591 105.757 207.79 107.082H214.316C214.131 105.757 213.946 104.445 213.789 103.148Z" fill="#195076"/>
<path d="M203.815 75.4404H195.108C195.992 76.7232 196.847 78.0345 197.645 79.3743H205.966C205.339 78.063 204.613 76.7375 203.815 75.4404Z" fill="#195076"/>
<path d="M208.702 85.1895H200.879C201.915 87.3274 202.865 89.5176 203.729 91.7601H211.096C210.384 89.5366 209.586 87.3559 208.702 85.1895Z" fill="#195076"/>
<path d="M121.44 36.6014V42.6304C124.818 42.1832 128.221 41.9594 131.628 41.9605H132.141V35.5752C128.555 35.6771 124.98 36.0199 121.44 36.6014Z" fill="#195076"/>
<path d="M102.19 42.3023V47.7898C105.319 46.49 108.532 45.4042 111.808 44.5401V38.8389C108.532 39.7888 105.32 40.9456 102.19 42.3023Z" fill="#195076"/>
<path d="M140.449 35.7603V42.4306C142.947 42.7094 145.429 43.1137 147.887 43.6421V36.7294C145.455 36.2638 142.976 35.9408 140.449 35.7603Z" fill="#195076"/>
<path d="M156.408 38.5825V46.0369C159.707 47.1524 162.926 48.4954 166.04 50.0561V41.9747C162.905 40.6386 159.688 39.5055 156.408 38.5825Z" fill="#195076"/>
<path d="M174.348 46.1367V54.8881C176.428 56.2849 178.437 57.7719 180.375 59.3493L185.704 54.0187C182.158 51.0619 178.358 48.4243 174.348 46.1367Z" fill="#195076"/>
<path d="M185.704 54.0186L180.375 59.3492C182.723 61.2872 184.964 63.3523 187.086 65.535L192.387 60.2328C190.281 58.0339 188.05 55.959 185.704 54.0186Z" fill="#195076"/>
<path d="M192.415 60.2329L187.115 65.5351C190.074 68.6105 192.776 71.9235 195.194 75.4408H203.815C200.621 69.944 196.795 64.84 192.415 60.2329Z" fill="#195076"/>
<path d="M212.863 98.4736H205.895C206.322 100.013 206.707 101.566 207.035 103.149H213.789C213.504 101.566 213.205 100.013 212.863 98.4736Z" fill="#195076"/>
<path d="M54.1992 115.819C54.208 119.285 54.4412 122.746 54.8974 126.181C54.6837 123.829 54.5554 121.435 54.5554 119.055C54.5494 110.082 56.1118 101.178 59.1721 92.7435V88.04C55.886 96.9329 54.2023 106.338 54.1992 115.819Z" fill="#195076"/>
<path d="M71.7397 65.7775V70.5522C73.8987 67.8791 76.2362 65.3553 78.736 62.9981V58.1094C76.239 60.5098 73.9019 63.0713 71.7397 65.7775Z" fill="#195076"/>
<path d="M92.1446 47.6191C89.9217 49.0064 87.7796 50.4887 85.7183 52.0661V57.1259C87.7844 55.6008 89.9217 54.1612 92.1446 52.85V47.6191Z" fill="#195076"/>
<path d="M65.5987 74.5996C64.4161 76.5808 63.3047 78.6189 62.293 80.7141V85.3891C63.3047 83.2939 64.4018 81.27 65.5987 79.2888V74.5996Z" fill="#195076"/>
<path d="M365.384 215.334V225.311H375.473V227.52H365.384V237.597H376.613V239.806H362.72V213.125H376.613V215.334H365.384Z" fill="#195076"/>
<path d="M406.835 214.764C408.882 215.762 410.57 217.37 411.666 219.368C412.821 221.562 413.395 224.015 413.333 226.494C413.402 228.974 412.828 231.429 411.666 233.621C410.564 235.602 408.877 237.195 406.835 238.182C404.466 239.293 401.87 239.835 399.255 239.764H391.375V213.153H399.255C401.873 213.084 404.471 213.636 406.835 214.764ZM407.733 234.718C408.73 233.625 409.497 232.343 409.986 230.947C410.476 229.551 410.679 228.07 410.583 226.594C410.679 225.104 410.477 223.611 409.987 222.201C409.498 220.791 408.731 219.493 407.733 218.384C406.593 217.344 405.254 216.546 403.796 216.039C402.339 215.532 400.794 215.326 399.255 215.434H394.04V237.554H399.255C400.79 237.661 402.332 237.458 403.788 236.958C405.244 236.459 406.585 235.673 407.733 234.647V234.718Z" fill="#195076"/>
<path d="M448.699 220.921C447.977 219.223 446.76 217.783 445.208 216.788C443.559 215.764 441.648 215.244 439.708 215.291C437.836 215.28 435.995 215.772 434.379 216.716C432.8 217.634 431.511 218.977 430.66 220.593C429.751 222.422 429.278 224.437 429.278 226.48C429.278 228.522 429.751 230.537 430.66 232.366C431.503 233.999 432.793 235.358 434.379 236.286C435.953 237.163 437.72 237.638 439.522 237.667C441.325 237.697 443.106 237.281 444.709 236.457C446.192 235.666 447.43 234.483 448.286 233.036C449.222 231.461 449.755 229.679 449.839 227.848H438.639V225.667H452.646V227.62C452.549 229.854 451.898 232.029 450.751 233.948C449.638 235.815 448.056 237.358 446.163 238.424C444.193 239.529 441.966 240.094 439.708 240.063C437.361 240.088 435.049 239.488 433.011 238.324C431.021 237.177 429.385 235.505 428.28 233.492C427.138 231.328 426.542 228.919 426.542 226.472C426.542 224.026 427.138 221.616 428.28 219.453C429.385 217.439 431.021 215.768 433.011 214.621C435.192 213.416 437.656 212.818 440.147 212.888C442.638 212.958 445.064 213.694 447.174 215.02C449.314 216.452 450.941 218.529 451.819 220.949L448.699 220.921Z" fill="#195076"/>
<path d="M469.702 215.334V225.311H479.776V227.52H469.702V237.597H480.93V239.806H467.038V213.125H480.93V215.334H469.702Z" fill="#195076"/>
<path d="M520.885 238.295C518.888 237.153 517.246 235.481 516.14 233.464C515.007 231.297 514.416 228.889 514.416 226.444C514.416 223.999 515.007 221.591 516.14 219.424C517.246 217.407 518.888 215.735 520.885 214.593C522.938 213.452 525.248 212.854 527.596 212.854C529.945 212.854 532.254 213.452 534.307 214.593C536.303 215.731 537.942 217.405 539.038 219.424C540.161 221.594 540.747 224.001 540.747 226.444C540.747 228.887 540.161 231.294 539.038 233.464C537.942 235.483 536.303 237.157 534.307 238.295C532.254 239.436 529.945 240.035 527.596 240.035C525.248 240.035 522.938 239.436 520.885 238.295ZM532.911 236.343C534.502 235.408 535.792 234.038 536.63 232.395C537.539 230.545 538.012 228.512 538.012 226.451C538.012 224.39 537.539 222.357 536.63 220.508C535.787 218.875 534.497 217.516 532.911 216.588C531.278 215.691 529.445 215.221 527.582 215.221C525.719 215.221 523.886 215.691 522.253 216.588C520.659 217.51 519.363 218.871 518.519 220.508C517.62 222.36 517.152 224.392 517.152 226.451C517.152 228.51 517.62 230.543 518.519 232.395C519.359 234.042 520.655 235.413 522.253 236.343C523.886 237.24 525.719 237.71 527.582 237.71C529.445 237.71 531.278 237.24 532.911 236.343Z" fill="#195076"/>
<path d="M569.517 213.153V215.362H557.79V225.339H567.693V227.548H557.79V239.806H555.125V213.153H569.517Z" fill="#195076"/>
<path d="M618.904 213.153V215.362H611.523V239.763H608.858V215.362H601.449V213.153H618.904Z" fill="#195076"/>
<path d="M635.304 215.334V225.311H645.393V227.52H635.304V237.597H646.533V239.806H632.711V213.125H646.604V215.334H635.304Z" fill="#195076"/>
<path d="M661.794 219.424C662.882 217.413 664.504 215.741 666.482 214.592C668.488 213.425 670.773 212.824 673.093 212.854C675.793 212.774 678.454 213.509 680.731 214.963C682.87 216.401 684.489 218.49 685.347 220.921H682.227C681.535 219.172 680.321 217.679 678.75 216.645C677.098 215.674 675.222 215.149 673.306 215.121C671.39 215.094 669.5 215.565 667.821 216.488C666.247 217.42 664.976 218.786 664.159 220.422C663.235 222.269 662.775 224.314 662.82 226.38C662.77 228.441 663.23 230.482 664.159 232.323C664.98 233.953 666.251 235.313 667.821 236.243C669.5 237.162 671.388 237.633 673.302 237.611C675.217 237.588 677.093 237.073 678.75 236.114C680.31 235.112 681.524 233.654 682.227 231.938H685.347C684.483 234.355 682.858 236.425 680.716 237.839C678.439 239.277 675.786 240.006 673.093 239.934C670.774 239.968 668.489 239.372 666.482 238.21C664.508 237.063 662.887 235.396 661.794 233.392C660.671 231.225 660.084 228.82 660.084 226.38C660.084 223.939 660.671 221.534 661.794 219.367V219.424Z" fill="#195076"/>
<path d="M719.901 213.153V239.763H717.236V227.32H702.816V239.763H700.152V213.153H702.816V225.111H717.236V213.153H719.901Z" fill="#195076"/>
<path d="M755.567 239.763H752.902L738.154 217.386V239.763H735.49V213.153H738.154L752.888 235.501V213.153H755.552L755.567 239.763Z" fill="#195076"/>
<path d="M776.37 238.295C774.375 237.136 772.738 235.45 771.639 233.421C770.498 231.257 769.901 228.847 769.901 226.401C769.901 223.954 770.498 221.545 771.639 219.381C772.744 217.368 774.381 215.697 776.37 214.55C778.426 213.409 780.738 212.811 783.088 212.811C785.439 212.811 787.751 213.409 789.807 214.55C791.799 215.689 793.433 217.362 794.523 219.381C795.656 221.548 796.247 223.956 796.247 226.401C796.247 228.846 795.656 231.254 794.523 233.421C793.433 235.44 791.799 237.113 789.807 238.252C787.751 239.393 785.439 239.991 783.088 239.991C780.738 239.991 778.426 239.393 776.37 238.252V238.295ZM788.396 236.342C789.994 235.413 791.29 234.042 792.13 232.394C793.029 230.542 793.497 228.51 793.497 226.451C793.497 224.392 793.029 222.359 792.13 220.507C791.286 218.87 789.99 217.51 788.396 216.588C786.766 215.691 784.935 215.22 783.074 215.22C781.213 215.22 779.383 215.691 777.752 216.588C776.158 217.51 774.863 218.87 774.019 220.507C773.119 222.359 772.652 224.392 772.652 226.451C772.652 228.51 773.119 230.542 774.019 232.394C774.858 234.042 776.154 235.413 777.752 236.342C779.383 237.239 781.213 237.71 783.074 237.71C784.935 237.71 786.766 237.239 788.396 236.342Z" fill="#195076"/>
<path d="M813.29 237.597H822.836V239.763H810.625V213.153H813.29V237.597Z" fill="#195076"/>
<path d="M841.417 238.295C839.42 237.153 837.778 235.481 836.672 233.464C835.54 231.297 834.948 228.889 834.948 226.444C834.948 223.999 835.54 221.591 836.672 219.424C837.778 217.407 839.42 215.735 841.417 214.593C843.47 213.452 845.78 212.854 848.128 212.854C850.477 212.854 852.787 213.452 854.84 214.593C856.832 215.736 858.47 217.408 859.57 219.424C860.693 221.594 861.28 224.001 861.28 226.444C861.28 228.887 860.693 231.294 859.57 233.464C858.47 235.48 856.832 237.153 854.84 238.295C852.787 239.436 850.477 240.035 848.128 240.035C845.78 240.035 843.47 239.436 841.417 238.295ZM853.443 236.343C855.034 235.408 856.324 234.038 857.162 232.395C858.062 230.543 858.53 228.51 858.53 226.451C858.53 224.392 858.062 222.36 857.162 220.508C856.319 218.875 855.029 217.516 853.443 216.588C851.81 215.691 849.977 215.221 848.114 215.221C846.251 215.221 844.418 215.691 842.785 216.588C841.191 217.51 839.895 218.871 839.052 220.508C838.152 222.36 837.684 224.392 837.684 226.451C837.684 228.51 838.152 230.543 839.052 232.395C839.891 234.042 841.187 235.413 842.785 236.343C844.418 237.24 846.251 237.71 848.114 237.71C849.977 237.71 851.81 237.24 853.443 236.343Z" fill="#195076"/>
<path d="M896.589 220.92C895.873 219.224 894.661 217.784 893.112 216.787C891.464 215.764 889.552 215.244 887.612 215.291C885.74 215.278 883.899 215.77 882.283 216.716C880.697 217.641 879.403 218.995 878.55 220.621C877.65 222.453 877.181 224.467 877.181 226.508C877.181 228.549 877.65 230.563 878.55 232.394C879.398 234.028 880.693 235.387 882.283 236.314C883.858 237.191 885.625 237.666 887.427 237.696C889.229 237.725 891.011 237.309 892.614 236.485C894.094 235.69 895.33 234.508 896.19 233.064C897.116 231.485 897.644 229.704 897.729 227.876H886.544V225.695H900.593V227.648C900.492 229.883 899.835 232.058 898.684 233.976C897.576 235.842 895.999 237.385 894.11 238.452C892.14 239.557 889.913 240.122 887.655 240.091C885.308 240.119 882.995 239.519 880.958 238.352C878.961 237.21 877.319 235.538 876.213 233.52C875.081 231.354 874.489 228.945 874.489 226.501C874.489 224.056 875.081 221.647 876.213 219.481C877.319 217.463 878.961 215.791 880.958 214.649C883.137 213.444 885.599 212.845 888.087 212.916C890.576 212.986 893 213.722 895.107 215.048C897.251 216.475 898.879 218.554 899.752 220.978L896.589 220.92Z" fill="#195076"/>
<path d="M932.511 213.153L923.962 229.415V239.763H921.297V229.415L912.748 213.153H915.769L922.694 226.978L929.576 213.153H932.511Z" fill="#195076"/>
<path d="M356.664 226.451H276.898" stroke="#195277" strokeWidth="4" stroke-miterlimit="10"/>
<path d="M1018.35 226.451H938.582" stroke="#195277" strokeWidth="4" stroke-miterlimit="10"/>
</svg>
