<svg width="80" height="80" viewBox="0 0 80 80" fill="none" xmlns="http://www.w3.org/2000/svg">
<path d="M14 0.5H66C73.4558 0.5 79.5 6.54416 79.5 14V66C79.5 73.4558 73.4558 79.5 66 79.5H14C6.54416 79.5 0.5 73.4558 0.5 66V14C0.5 6.54416 6.54416 0.5 14 0.5Z" stroke="#195277"/>
<path d="M66 1H14C6.8203 1 1 6.8203 1 14V66C1 73.1797 6.8203 79 14 79H66C73.1797 79 79 73.1797 79 66V14C79 6.8203 73.1797 1 66 1Z" stroke="#195277" strokeWidth="2" strokeLinejoin="round"/>
<path d="M51.0958 52.7156L50.74 52.355L50.3841 52.7156L44.7507 58.4231C44.6946 58.4773 44.6272 58.5183 44.5532 58.5432C44.4784 58.5685 44.3986 58.5765 44.3197 58.5667L44.2811 58.5619L44.2423 58.5632C43.9619 58.572 43.6845 58.5076 43.4373 58.3768C43.3704 58.3028 43.3163 58.2181 43.2774 58.1261C43.2308 58.016 43.2068 57.8976 43.2068 57.778C43.2068 57.6584 43.2308 57.54 43.2774 57.4299C43.324 57.3198 43.3922 57.2202 43.4781 57.1369L43.4781 57.137L43.4859 57.1292L49.1229 51.417L49.4695 51.0658L49.1229 50.7146L43.7678 45.2886L43.7679 45.2885L43.7603 45.2811C43.6744 45.1977 43.6063 45.0981 43.5597 44.9881C43.5132 44.8779 43.4892 44.7594 43.4892 44.6398C43.4892 44.5203 43.5131 44.402 43.5597 44.2918C43.6064 44.1815 43.6746 44.0817 43.7603 43.9985L43.7689 43.9902L43.7771 43.9814C43.8565 43.8966 43.9526 43.8288 44.0598 43.7823C44.1666 43.736 44.2819 43.7121 44.3985 43.7121C44.515 43.7121 44.6303 43.736 44.7371 43.7823C44.8443 43.8288 44.9405 43.8966 45.0199 43.9814L45.0198 43.9816L45.0291 43.991L50.3841 49.418L50.74 49.7787L51.0959 49.418L56.4499 43.991L56.45 43.9911L56.4591 43.9813C56.5385 43.8965 56.6346 43.8288 56.7416 43.7823C56.8484 43.736 56.9636 43.7121 57.08 43.7121C57.1964 43.7121 57.3116 43.736 57.4184 43.7823C57.5253 43.8287 57.6214 43.8964 57.7008 43.9813L57.7091 43.9903L57.7179 43.9987C57.8036 44.0819 57.8719 44.1817 57.9186 44.292C57.9652 44.4022 57.9892 44.5203 57.9892 44.6398C57.9892 44.7594 57.9652 44.8778 57.9186 44.9879C57.872 45.0979 57.8038 45.1976 57.7179 45.2809L57.7178 45.2808L57.71 45.2886L52.356 50.7147L52.0095 51.0659L52.3561 51.417L57.9931 57.1292L57.993 57.1293L58.0009 57.1369C58.0867 57.2202 58.155 57.3198 58.2016 57.4299C58.2482 57.54 58.2722 57.6584 58.2722 57.778C58.2722 57.8976 58.2482 58.016 58.2016 58.1261C58.155 58.2362 58.0867 58.3358 58.0009 58.4191L58.0008 58.419L57.9942 58.4257C57.924 58.4964 57.8726 58.5208 57.7913 58.5372C57.6752 58.5607 57.5213 58.5629 57.221 58.5629H57.19L57.1592 58.5667C57.0804 58.5765 57.0005 58.5685 56.9257 58.5432C56.8518 58.5183 56.7844 58.4773 56.7282 58.4231L51.0958 52.7156ZM44.544 37.144H44.5299L44.5158 37.1448C44.3973 37.1514 44.2787 37.1328 44.1677 37.09C44.057 37.0473 43.9564 36.9814 43.8729 36.8968C43.7894 36.8122 43.725 36.7109 43.6838 36.5996C43.6425 36.4881 43.6255 36.3693 43.6338 36.2508L43.635 36.2334V36.216V23.3639V23.3465L43.6338 23.3291C43.6255 23.2106 43.6425 23.0918 43.6838 22.9804C43.7251 22.8688 43.7896 22.7673 43.8729 22.6829C43.9562 22.5985 44.0566 22.5327 44.1677 22.4899C44.2787 22.4471 44.3973 22.4285 44.5158 22.4352L44.5299 22.436H44.544H57.2249H57.239L57.2531 22.4352C57.3716 22.4285 57.4903 22.4471 57.6013 22.4899C57.7123 22.5327 57.8127 22.5984 57.896 22.6829C57.9794 22.7674 58.0439 22.8689 58.0852 22.9804C58.1264 23.0917 58.1434 23.2105 58.1352 23.3291L58.1339 23.3465V23.3639V36.216V36.2334L58.1352 36.2508C58.1434 36.3694 58.1264 36.4882 58.0852 36.5995C58.044 36.7108 57.9795 36.8121 57.896 36.8968C57.8124 36.9815 57.7119 37.0474 57.6013 37.09C57.4903 37.1328 57.3716 37.1514 57.2531 37.1448L57.239 37.144H57.2249H44.544ZM23.408 37.144H23.3762L23.3447 37.148C23.2084 37.1654 23.0698 37.1478 22.942 37.0969C22.8141 37.046 22.7015 36.9635 22.6145 36.8573C22.5274 36.751 22.4688 36.6241 22.4442 36.4887C22.4213 36.3631 22.4284 36.2341 22.4648 36.112L28.9176 23.047C29.0948 22.793 29.4075 22.6508 29.7143 22.6508C30.0348 22.6508 30.2119 22.7931 30.2657 22.9541L30.2764 22.9864L30.2915 23.0169L36.7625 36.1451L36.789 36.1988L36.8275 36.2448C36.8953 36.3259 36.9382 36.4246 36.951 36.5293C36.964 36.6341 36.9463 36.7405 36.9002 36.8355C36.8542 36.9304 36.7817 37.01 36.6913 37.0649C36.6009 37.1197 36.4968 37.1472 36.3914 37.1442L36.3842 37.144H36.377H23.408ZM22.4999 51.068C22.5198 49.6105 22.9701 48.1915 23.7941 46.9891C24.6184 45.7863 25.78 44.8539 27.1327 44.3095C28.4854 43.7651 29.9689 43.6329 31.3967 43.9294C32.8244 44.2259 34.1326 44.9378 35.1567 45.9758C36.1808 47.0138 36.8752 48.3316 37.1524 49.7632C37.4296 51.1948 37.2774 52.6763 36.7148 54.0216C36.1522 55.3669 35.2044 56.5159 33.9906 57.3239C32.7772 58.1317 31.3522 58.5626 29.8946 58.5629C28.9173 58.5562 27.9508 58.3571 27.0504 57.977C26.1493 57.5967 25.3321 57.0429 24.6453 56.3468C23.9585 55.6506 23.4155 54.8259 23.0474 53.9199C22.6795 53.0144 22.4935 52.0453 22.4999 51.068Z" fill="#195277" stroke="#195277"/>
</svg>
