<svg width="25" height="25" viewBox="0 0 25 25" fill="none" xmlns="http://www.w3.org/2000/svg">
<path d="M22.0073 21.1682L17.4683 16.6292C18.8152 14.9217 19.4587 12.764 19.2673 10.5976C19.0758 8.43128 18.0638 6.41994 16.4384 4.97509C14.8129 3.53024 12.6967 2.76108 10.5229 2.82497C8.349 2.88886 6.28169 3.78097 4.74387 5.31879C3.20605 6.85662 2.31394 8.92392 2.25005 11.0978C2.18616 13.2717 2.95532 15.3878 4.40017 17.0133C5.84502 18.6388 7.85636 19.6507 10.0227 19.8422C12.1891 20.0336 14.3467 19.3901 16.0543 18.0432L20.5933 22.5822L22.0073 21.1682ZM10.8003 17.8752C9.5147 17.8752 8.25799 17.494 7.18907 16.7798C6.12015 16.0655 5.28703 15.0504 4.79506 13.8626C4.30309 12.6749 4.17437 11.368 4.42517 10.1071C4.67598 8.84623 5.29504 7.68805 6.20408 6.779C7.11312 5.86996 8.27131 5.2509 9.53219 5.00009C10.7931 4.74929 12.1 4.87801 13.2877 5.36998C14.4754 5.86195 15.4906 6.69507 16.2048 7.76399C16.9191 8.83291 17.3003 10.0896 17.3003 11.3752C17.2982 13.0985 16.6127 14.7505 15.3941 15.9691C14.1756 17.1876 12.5235 17.8731 10.8003 17.8752Z" fill="#195277"/>
</svg>
