<svg width="81" height="80" viewBox="0 0 81 80" fill="none" xmlns="http://www.w3.org/2000/svg">
<path d="M14.3003 0.5H66.3003C73.7561 0.5 79.8003 6.54416 79.8003 14V66C79.8003 73.4558 73.7561 79.5 66.3003 79.5H14.3003C6.84445 79.5 0.800293 73.4558 0.800293 66V14C0.800293 6.54416 6.84445 0.5 14.3003 0.5Z" stroke="#195277"/>
<path d="M66.3003 1H14.3003C7.12059 1 1.30029 6.8203 1.30029 14V66C1.30029 73.1797 7.12059 79 14.3003 79H66.3003C73.48 79 79.3003 73.1797 79.3003 66V14C79.3003 6.8203 73.48 1 66.3003 1Z" stroke="#195277" strokeWidth="2" strokeLinejoin="round"/>
<path d="M20.694 56.3064C21.3428 56.9552 22.2228 57.3198 23.1403 57.3201L20.694 56.3064ZM20.694 56.3064C20.0452 55.6575 19.6806 54.7777 19.6803 53.8601M20.694 56.3064L19.6803 53.8601M19.6803 53.8601C19.6803 53.8601 19.6803 53.86 19.6803 53.86M19.6803 53.8601L19.6803 53.86M19.6803 53.86V26.14C19.6803 26.14 19.6803 26.1399 19.6803 26.1399C19.6806 25.2223 20.0452 24.3425 20.694 23.6936C21.3428 23.0448 22.2228 22.6802 23.1403 22.6799C23.1404 22.6799 23.1404 22.6799 23.1404 22.6799H57.4601C57.4602 22.6799 57.4602 22.6799 57.4603 22.6799C58.3778 22.6802 59.2578 23.0448 59.9066 23.6936C60.5554 24.3425 60.92 25.2223 60.9203 26.1399C60.9203 26.1399 60.9203 26.14 60.9203 26.14V53.86H19.6803ZM59.9066 56.3064C60.5554 55.6575 60.92 54.7777 60.9203 53.8601L59.9066 56.3064ZM59.9066 56.3064C59.2578 56.9552 58.3778 57.3198 57.4603 57.3201M59.9066 56.3064L57.4603 57.3201M57.4603 57.3201C57.4602 57.3201 57.4602 57.3201 57.4601 57.3201M57.4603 57.3201H57.4601M57.4601 57.3201H23.1404H57.4601ZM23.1399 55.6799H23.1403H57.4603H57.4606C57.9431 55.6796 58.4057 55.4877 58.7467 55.1464C59.0876 54.8052 59.2793 54.3427 59.2793 53.8601V32.74V32.24H58.7793H21.8203H21.3203L21.3203 32.74L21.3213 53.8601C21.3213 54.3427 21.5129 54.8052 21.8539 55.1464C22.1949 55.4877 22.6575 55.6796 23.1399 55.6799ZM54.3213 28.7802L54.3215 29.28H54.8213H57.4623H57.9623V28.78V26.1399V25.6399H57.4623H54.8203H54.3201L54.3203 26.1401L54.3213 28.7802ZM50.3613 28.7802L50.3615 29.28H50.8613H53.5003H54.0003V28.78V26.1399V25.6399H53.5003H50.8603H50.3601L50.3603 26.1401L50.3613 28.7802ZM46.4013 28.7802L46.4015 29.28H46.9013H49.5423H50.0423V28.78V26.1399V25.6399H49.5423H46.9003H46.4001L46.4003 26.1401L46.4013 28.7802ZM45.2531 50.4743L51.3599 44.3655L51.7136 44.0117L51.3596 43.6582L45.2526 37.5588L46.4136 36.3977L53.4226 43.4334C53.5732 43.5914 53.6586 43.8006 53.6617 44.0189C53.6647 44.235 53.5868 44.4442 53.4434 44.6057L46.4137 51.6297L45.2531 50.4743ZM35.3745 37.5613L29.2709 43.6582L28.9171 44.0117L29.2706 44.3654L35.3767 50.4744L34.2177 51.6296L27.1806 44.6002C27.0302 44.4422 26.9449 44.2333 26.9419 44.0153C26.9389 43.7991 27.0169 43.5897 27.1602 43.4282L34.1917 36.3947L35.3745 37.5613ZM37.9438 51.8919L41.0475 36.3685L42.655 36.6902L39.5509 52.2106L37.9438 51.8919Z" fill="#195277" stroke="#195277"/>
</svg>
